<svg width="68" height="68" viewBox="0 0 68 68" fill="none" xmlns="http://www.w3.org/2000/svg">
<rect width="67.3704" height="67.3704" rx="33.6852" fill="#3A216F"/>
<path fill-rule="evenodd" clip-rule="evenodd" d="M39.9856 23.8603C39.9856 26.0524 39.1147 28.1548 37.5647 29.7048C36.0146 31.2549 33.9123 32.1257 31.7202 32.1257C29.5281 32.1257 27.4258 31.2549 25.8757 29.7048C24.3257 28.1548 23.4549 26.0524 23.4549 23.8603C23.4549 21.6682 24.3257 19.5659 25.8757 18.0158C27.4258 16.4658 29.5281 15.595 31.7202 15.595C33.9123 15.595 36.0146 16.4658 37.5647 18.0158C39.1147 19.5659 39.9856 21.6682 39.9856 23.8603ZM28.4141 35.4318C25.3451 35.4318 22.4019 36.6509 20.2318 38.821C18.0617 40.9911 16.8426 43.9343 16.8426 47.0033C16.8426 48.3186 17.3651 49.58 18.2951 50.51C19.2251 51.44 20.4865 51.9625 21.8018 51.9625H34.051C34.7635 51.9625 35.1702 51.0897 34.7999 50.478C33.8638 48.9316 33.3704 47.1579 33.3733 45.3502C33.372 43.7548 33.7561 42.1826 34.4929 40.7674C35.2297 39.3523 36.2974 38.136 37.6051 37.2221C38.2069 36.8006 38.1556 35.8352 37.4382 35.6847C36.6612 35.5194 35.8529 35.4318 35.0264 35.4318H28.4141ZM43.2917 38.738C43.7301 38.738 44.1506 38.9121 44.4606 39.2221C44.7706 39.5321 44.9448 39.9526 44.9448 40.391V43.6972H48.2509C48.6893 43.6972 49.1098 43.8713 49.4198 44.1813C49.7298 44.4913 49.904 44.9118 49.904 45.3502C49.904 45.7886 49.7298 46.2091 49.4198 46.5191C49.1098 46.8291 48.6893 47.0033 48.2509 47.0033H44.9448V50.3094C44.9448 50.7479 44.7706 51.1683 44.4606 51.4783C44.1506 51.7883 43.7301 51.9625 43.2917 51.9625C42.8533 51.9625 42.4328 51.7883 42.1228 51.4783C41.8128 51.1683 41.6386 50.7479 41.6386 50.3094V47.0033H38.3325C37.8941 47.0033 37.4736 46.8291 37.1636 46.5191C36.8536 46.2091 36.6794 45.7886 36.6794 45.3502C36.6794 44.9118 36.8536 44.4913 37.1636 44.1813C37.4736 43.8713 37.8941 43.6972 38.3325 43.6972H41.6386V40.391C41.6386 39.9526 41.8128 39.5321 42.1228 39.2221C42.4328 38.9121 42.8533 38.738 43.2917 38.738Z" fill="#C4B5FD"/>
</svg>
